<mxfile host="app.diagrams.net" modified="2024-04-13T03:59:29.246Z" agent="Mozilla/5.0 (Windows NT 10.0; Win64; x64) AppleWebKit/537.36 (KHTML, like Gecko) Chrome/123.0.0.0 Safari/537.36" version="24.2.3" etag="H8LDmYZycpp8yR3PVArF" type="github">
  <diagram name="Page-1" id="zjRYuZbYbPO0s9dTV6ci">
    <mxGraphModel>
      <root>
        <mxCell id="0" />
        <mxCell id="1" parent="0" />
      </root>
    </mxGraphModel>
  </diagram>
</mxfile>
